# xmcd
#
# Track frame offsets: 
#        300
#        50446
#        68599
#        99262
#        124870
#        141254
#        171259
#        192881
#        215080
#        241082
#        256854
#        276473
#
# Disc length: 3770 seconds
#
# Revision: 0
# Processed by: cddbd v1.5.2PL0 Copyright (c) Steve Scherf et al.
# Submitted via: ExactAudioCopy v0.99pb4
#
DISCID=b20eb60c
DTITLE=Willie Dixon - Quiet Night, Chicago 1974
DYEAR=1900
DGENRE=Blues
TTITLE0=Intro Boogie
TTITLE1=Crazy 'Bout My Baby
TTITLE2=Rock Me
TTITLE3=I,Don't Trust Nobody (When It Comes To My Girl)
TTITLE4=29 Ways
TTITLE5=Wang Dang Doodle
TTITLE6=Hootchie Coochie Man
TTITLE7=Little Red Rooster
TTITLE8=I Think I Got The Blues
TTITLE9=My Baby
TTITLE10=Spoonful
TTITLE11=Closing Boogie
EXTD=
EXTT0=
EXTT1=
EXTT2=
EXTT3=
EXTT4=
EXTT5=
EXTT6=
EXTT7=
EXTT8=
EXTT9=
EXTT10=
EXTT11=
PLAYORDER=
